<?xml version="1.0" encoding="utf-8"?>
<!-- Generator: Adobe Illustrator 26.0.3, SVG Export Plug-In . SVG Version: 6.00 Build 0)  -->
<svg version="1.1" id="Layer_1" xmlns="http://www.w3.org/2000/svg" xmlns:xlink="http://www.w3.org/1999/xlink" x="0px" y="0px"
	 width="1366px" height="424.5px" viewBox="0 0 1366 424.5" style="enable-background:new 0 0 1366 424.5;" xml:space="preserve">
<style type="text/css">
	.st0{opacity:0.27;}
	.st1{fill:#FFFFFF;}
</style>
<g class="st0">
	<path class="st1" d="M34.3,361.7L12,109l82.8-7.3c28.1-2.5,51.8,3,68.5,16c15.5,12,24.7,29.9,26.6,51.7c1.9,21.1-3.7,39.7-16.1,54
		c-14.2,16.3-36.4,25.9-65.8,28.5l-43.8,3.9l9,102.6L34.3,361.7z M19.6,115.3l21,238.8l25.1-2.2l-9-102.6l50.7-4.5
		c27.6-2.4,48.1-11.2,61.1-26.2c11.1-12.8,16.1-29.6,14.4-48.8c-1.7-19.8-10-36-24-46.7c-15.3-11.8-37.3-16.8-63.6-14.5L19.6,115.3z
		 M55,229.8l-8.6-97.2l50.7-4.5c18.7-1.6,33.3,1.5,43.3,9.2c9.7,7.5,15.3,19.2,16.6,34.8c1.9,22-5.4,49.1-51.4,53.2h0L55,229.8z
		 M54,138.9l7.3,83.3l43.8-3.9c32.3-2.8,47.5-18.2,45.1-45.6c-1.2-13.6-5.9-23.7-13.9-29.9c-8.6-6.7-21.6-9.3-38.5-7.8L54,138.9z"/>
	<path class="st1" d="M303.7,340.7c-53.6,0-93.5-37.9-98.6-95.3c-2.7-30.3,5.2-57.1,22.8-77.7c16.7-19.6,41.4-31.7,69.3-34.2
		c28.1-2.5,54.5,5.2,74.4,21.5c20.8,17.1,33.2,42.2,35.9,72.5c2.7,30.4-5.4,57.5-23.3,78.2c-17,19.7-41.9,32-70.1,34.4
		C310.5,340.6,307.1,340.7,303.7,340.7z M313.4,333.3l0.3,3.5L313.4,333.3c26.4-2.3,49.6-13.7,65.4-32c16.7-19.3,24.1-44.5,21.6-73
		c-2.5-28.4-14-51.8-33.3-67.7c-18.4-15.2-43-22.3-69.3-19.9c-55.5,4.9-90.7,47.7-85.7,104.2c2.5,28.6,13.9,52.3,32.8,68.3
		C263.1,328.4,287.4,335.6,313.4,333.3z M305,312.4c-15.8,0-30.5-5.1-41.9-14.8c-14.4-12.2-23.1-31.3-25.2-55
		c-2.1-23.6,3.3-43.8,15.6-58.3c11-13,27.3-21.1,45.8-22.7c18.3-1.6,35.7,3.5,49.1,14.3c15.1,12.3,24.2,31.2,26.2,54.7
		c2.1,23.6-3.7,44-16.7,58.8c-11.4,13.1-28,21.2-46.5,22.8h0C309.3,312.3,307.1,312.4,305,312.4z M306.6,168.2
		c-2.2,0-4.4,0.1-6.6,0.3c-28.2,2.5-59.5,23.2-55,73.5c1.9,21.9,9.8,39.3,22.7,50.3c11.4,9.7,26.8,14.3,43.3,12.9l0,0
		c31.3-2.8,60.9-26.7,56.8-74C364.8,199,344.9,168.2,306.6,168.2z"/>
	<path class="st1" d="M453.2,417.2l-25.7-291.9l39.1-3.4l2.5,27.9c11.8-17.5,33.8-34.3,66.1-37.1c26.5-2.3,51.4,5.5,70.3,22
		c19.6,17.2,31.3,42.1,33.9,72.1c5.3,60.2-30.9,107.5-86,112.4c-2.9,0.3-5.8,0.4-8.6,0.4c-27.5,0-49.2-11.9-63-25.8l10.6,119.9
		L453.2,417.2z M435.1,131.7l24.5,277.9l25.1-2.2l-12-136.3l7.4,10.1c12.5,17,38.1,34,72.6,31c24.4-2.1,45.9-13.6,60.4-32.2
		c14.9-19.1,21.7-44.8,19.3-72.6c-5-56.3-44.7-92.4-96.6-87.8c-35.5,3.1-57.4,24.3-66,43.1l-5.5,12l-4-45.3L435.1,131.7z
		 M537.8,291.9c-16.3,0-31.6-5.6-43.8-16c-14.8-12.6-23.6-31.2-25.6-53.6c-2-22.2,3.5-41.8,15.9-56.8c11.5-14,28.1-22.7,46.6-24.3
		l0,0c18.9-1.7,36.8,3.8,50.4,15.3c14.6,12.4,23.3,30.8,25.3,53.3c2,22.5-3.4,42.4-15.5,57.4c-11.4,14.1-28,22.8-46.9,24.4
		C542,291.8,539.9,291.9,537.8,291.9z M531.5,148.1c-16.7,1.5-31.5,9.2-41.8,21.8c-11.1,13.6-16.1,31.5-14.3,51.8
		c1.8,20.6,9.8,37.5,23.2,48.9c12.3,10.5,28.2,15.5,45,14c36.6-3.2,59.6-33.8,56-74.3c-1.8-20.6-9.7-37.4-22.9-48.6
		C564.6,151.4,548.5,146.6,531.5,148.1L531.5,148.1z"/>
	<path class="st1" d="M685.1,396.8l-25.7-291.9l39.1-3.4l2.5,27.9c11.8-17.5,33.8-34.3,66.1-37.1c26.5-2.3,51.4,5.5,70.3,22
		c19.6,17.2,31.3,42.1,33.9,72.1c2.6,29.5-4.8,57-20.7,77.5c-15.7,20.1-38.9,32.5-65.3,34.8c-2.9,0.3-5.8,0.4-8.6,0.4
		c-27.5,0-49.2-11.9-63-25.8l10.6,119.9L685.1,396.8z M667,111.3l24.5,277.9l25.1-2.2l-12-136.3l7.4,10.1c12.5,17,38.1,34,72.6,31
		c24.4-2.1,45.9-13.6,60.4-32.2c14.9-19.1,21.7-44.8,19.3-72.6c-2.5-28.2-13.4-51.5-31.6-67.5c-17.4-15.3-40.5-22.5-65-20.3
		c-35.5,3.1-57.4,24.3-66,43.1l-5.5,12l-4-45.3L667,111.3z M769.7,271.5c-16.3,0-31.6-5.6-43.8-16c-14.8-12.6-23.6-31.2-25.6-53.6
		c-2-22.2,3.5-41.8,15.9-56.8c11.5-14,28.1-22.7,46.6-24.3l0,0c18.9-1.7,36.8,3.8,50.4,15.3c14.6,12.4,23.3,30.8,25.3,53.3
		c2,22.5-3.4,42.4-15.5,57.4c-11.4,14.1-28,22.8-46.9,24.4C773.9,271.4,771.8,271.5,769.7,271.5z M763.4,127.7
		c-16.7,1.5-31.5,9.2-41.8,21.8c-11.1,13.6-16.1,31.5-14.3,51.8c1.8,20.6,9.8,37.5,23.2,48.9c12.3,10.5,28.2,15.5,45,14
		c16.9-1.5,31.9-9.3,42.1-21.9c11-13.6,15.8-31.7,14-52.4c-1.8-20.6-9.7-37.4-22.9-48.6C796.5,131,780.4,126.2,763.4,127.7
		L763.4,127.7z"/>
	<path class="st1" d="M908.1,284.8L890.5,84.6l39.1-3.4l17.6,200.2L908.1,284.8z M898,90.9l16.4,186.2l25.1-2.2L923.2,88.7L898,90.9
		z M906,58.5c-6,0-11.7-2-16.3-5.8c-5.1-4.3-8.3-10.5-8.9-17.4c-0.6-6.9,1.4-13.5,5.7-18.7c4.3-5.1,10.5-8.3,17.4-8.9
		c13.8-1.2,25.6,9,26.9,23.2c1.3,14.2-8.6,26.3-22.4,27.5C907.6,58.5,906.8,58.5,906,58.5z M906.1,14.6c-0.5,0-1.1,0-1.6,0.1
		c-5,0.4-9.5,2.7-12.6,6.4c-3.1,3.7-4.6,8.5-4.1,13.6v0c0.9,10.5,9.5,17.7,20,16.8c9.9-0.9,17-9.6,16.1-19.9
		C923,21.8,915.3,14.6,906.1,14.6z"/>
	<path class="st1" d="M986.9,277.8L969.3,77.6l39.1-3.4l1.8,20.6c12.4-16.6,32.4-27.1,56.4-29.3c50.9-4.5,85.4,25.8,90.1,79.1
		L1167,262l-38.7,3.4l-9.9-112.8c-1.6-18.3-7.5-32.1-17.6-41c-9.4-8.3-22.5-12-37.8-10.7c-15.6,1.4-28.1,7.5-36.2,17.6
		c-8.7,11-12.2,26.3-10.5,45.5l9.7,110.3L986.9,277.8z M976.9,84l16.4,186.2l25.1-2.2l-9.1-103.3c-1.9-21.1,2.2-38,12-50.5
		c9.3-11.7,23.5-18.7,41.1-20.3c17.3-1.5,32.2,2.8,43.1,12.4c11.4,10.1,18.1,25.5,19.9,45.6l9.3,105.8l24.8-2.2l-9.7-110.4
		c-2.2-25.2-11.5-45.2-26.9-57.8c-14.3-11.7-33.6-16.9-55.6-14.9c-25.8,2.3-46.4,14.9-56.5,34.6l-5.5,10.8l-3.2-36.1L976.9,84z"/>
	<path class="st1" d="M1265.5,256c-18.5,0-35.1-4.4-48.5-12.9c-15.9-10-26.1-25.5-28.8-43.6l-0.5-3.7l40-3.5l0.6,3.1
		c3.3,17.9,20.8,28,44.6,25.9c21.5-1.9,35.1-13.2,33.8-28.2c-1.3-15-18.3-19-46.1-23.9c-32.2-5.7-72.3-12.7-76.1-55.9
		c-1.4-15.8,4.7-30.9,17-42.6c12.8-12.1,30.8-19.5,52.3-21.4c45-4,76.4,18,82.1,57.2l0.5,3.7l-39,3.4l-0.5-3.2
		c-3-18.5-18.8-28.8-41.1-26.9c-20.8,1.8-33.4,12.2-32.2,26.3c1.6,18,23,21.9,47.9,26.5c16.2,3,32.9,6.1,46.6,13.4
		c16.2,8.7,25,21.7,26.9,39.9c1.5,16.7-4.5,32.4-16.8,44.3c-12.5,12.1-30.5,19.5-52,21.4l-0.3-3.5l0.3,3.5
		C1272.7,255.9,1269,256,1265.5,256z M1195.9,202.2c3.1,14.6,11.7,26.7,24.9,35c14.6,9.3,33.6,13.2,54.9,11.3
		c19.8-1.7,36.3-8.5,47.7-19.5c10.8-10.4,16-24.1,14.7-38.6c-3.8-35.3-36.4-41.3-67.9-47.1c-26.5-4.9-51.5-9.5-53.6-32.8
		c-1.6-18.1,13.9-31.7,38.5-33.9c24.7-2.2,43.2,9.3,48,29.5l25.2-2.2c-3.1-15.7-11-28.3-23.1-36.6c-13.1-9-30.6-12.8-50.8-11
		c-19.6,1.7-36.6,8.6-48.1,19.5c-10.8,10.2-16.1,23.3-14.9,36.9c3.3,37.9,37.4,43.9,70.3,49.6c25.7,4.5,50,8.8,51.8,30.2
		c1.4,16-10.5,33.2-40.2,35.8c-26.3,2.3-46.1-8.8-51.4-28.5L1195.9,202.2z"/>
</g>
<g>
</g>
<g>
</g>
<g>
</g>
<g>
</g>
<g>
</g>
<g>
</g>
<g>
</g>
<g>
</g>
<g>
</g>
<g>
</g>
<g>
</g>
<g>
</g>
<g>
</g>
<g>
</g>
<g>
</g>
</svg>
