<?xml version="1.0" encoding="utf-8"?>
<!-- Generator: Adobe Illustrator 26.0.3, SVG Export Plug-In . SVG Version: 6.00 Build 0)  -->
<svg version="1.1" id="Layer_1" xmlns="http://www.w3.org/2000/svg" xmlns:xlink="http://www.w3.org/1999/xlink" x="0px" y="0px"
	 width="273.5px" height="768px" viewBox="0 0 273.5 768" style="enable-background:new 0 0 273.5 768;" xml:space="preserve">
<style type="text/css">
	.st0{opacity:4.000000e-02;}
</style>
<g class="st0">
	<path d="M213.7-28.2v-23h-49.8v-15.6h119.4v38.5c0,28.1-15.4,41.3-34.9,41.3C230.1,13.1,213.7,1.4,213.7-28.2z M226.5-28.2
		c0,17.8,8.4,25.4,21.8,25.4c13.9,0,22.1-7.5,22.1-25.4v-23h-43.9V-28.2z"/>
	<path d="M162.3,67.3c0-26.6,18.8-46.8,48.6-46.8c29.6,0,48.3,20.9,48.3,47.4c0,26.7-18.7,47.4-48.3,47.4
		C181.1,115.5,162.3,94.1,162.3,67.3z M176,67.3c0,16.3,11.1,32.2,34.9,32.2c23.6,0,34.8-15.6,34.8-31.7c0-16.4-11.1-31.3-34.8-31.3
		C187.1,36.5,176,51.1,176,67.3z"/>
	<path d="M259.3,183.6c0,25.2-18.8,44.5-48.1,44.5c-29.1,0-48.8-19.4-48.8-44.5c0-17.1,9.2-29.3,18.8-35.1h-61.8v-15.6h138.4v15.6
		h-17.3C250.3,154.1,259.3,166.5,259.3,183.6z M245.7,180.3c0-17-13-31.9-34.8-31.9c-22.1,0-34.9,14.9-34.9,31.9
		c0,17.3,13,31.9,35.1,31.9C233.2,212.2,245.7,197.6,245.7,180.3z"/>
	<path d="M259.3,296.3c0,25.2-18.8,44.5-48.1,44.5c-29.1,0-48.8-19.4-48.8-44.5c0-17.1,9.2-29.3,18.8-35.1h-61.8v-15.6h138.4v15.6
		h-17.3C250.3,266.8,259.3,279.1,259.3,296.3z M245.7,293c0-17-13-31.9-34.8-31.9c-22.1,0-34.9,14.9-34.9,31.9
		c0,17.3,13,31.9,35.1,31.9C233.2,324.9,245.7,310.3,245.7,293z"/>
	<path d="M257.7,357.8v15.6h-93.9v-15.6H257.7z M283.6,355.2c6,0,10.6,4.6,10.6,10.6c0,5.7-4.6,10.3-10.6,10.3s-10.6-4.6-10.6-10.3
		C273,359.8,277.6,355.2,283.6,355.2z"/>
	<path d="M216.9,464.8c19.2,0,28.9-10.4,28.9-26.2c0-15.9-9.9-26.9-30.1-26.9h-51.9v-15.6h93.9v15.6h-13.4
		c9.8,6.2,15.1,17.5,15.1,30.1c0,21.8-13.4,38.4-40.3,38.4h-55.3v-15.4H216.9z"/>
	<path d="M162.3,534.9c0-21.9,12-37.3,29.1-38.4v16.1c-9.1,0.9-15.9,8.9-15.9,22.1c0,12.3,6.2,19.2,13.9,19.2
		c20.9,0,8.7-55.5,43.7-55.5c14.4,0,26.2,13.5,26.2,34.4c0,20.7-11.1,34.4-29.5,35.5v-15.6c9.4-0.7,16.3-7.9,16.3-20.4
		c0-11.5-5.5-18.3-13-18.3c-22.3,0-10.1,54.5-43.7,55.2C173.9,569.1,162.3,555.6,162.3,534.9z"/>
</g>
<g>
</g>
<g>
</g>
<g>
</g>
<g>
</g>
<g>
</g>
<g>
</g>
<g>
</g>
<g>
</g>
<g>
</g>
<g>
</g>
<g>
</g>
<g>
</g>
<g>
</g>
<g>
</g>
<g>
</g>
</svg>
