<svg width="100" height="97" viewBox="0 0 100 97" fill="none" xmlns="http://www.w3.org/2000/svg">
<path d="M18.9127 12.6664C21.0498 10.6664 24.089 10.7448 26.383 13.1761C28.6771 15.6074 28.5791 18.7054 26.4419 20.7053C24.8929 22.1759 22.991 22.3328 21.6185 21.7837L26.6968 27.1954L25.7164 28.1169L14.9324 16.627L15.9127 15.7055L17.5205 17.4309C17.05 15.9996 17.3441 14.1369 18.9127 12.6664ZM19.5205 13.7251C17.9323 15.2153 17.7362 17.6466 19.5793 19.5877C21.4028 21.5288 23.8537 21.4896 25.4419 20.0191C27.0889 18.4701 27.2261 16.1172 25.3831 14.1369C23.5008 12.1566 21.1675 12.1762 19.5205 13.7251Z" fill="white"/>
<path d="M35.7358 14.5094C33.0104 15.7839 30.03 14.8427 28.5791 11.784C27.1282 8.70563 28.3634 5.80375 31.0888 4.52928C33.8143 3.2548 36.8338 4.15674 38.2847 7.23508C39.7161 10.2938 38.4612 13.2153 35.7358 14.5094ZM35.226 13.4114C37.0495 12.5487 38.2455 10.4703 36.9906 7.8233C35.7358 5.15671 33.4221 4.74496 31.579 5.60768C29.7359 6.4704 28.5987 8.52917 29.8536 11.1958C31.0888 13.8427 33.3829 14.2937 35.226 13.4114Z" fill="white"/>
<path d="M46.265 0.215674C49.1669 -0.137257 51.5786 1.70583 52.01 5.03907C52.4217 8.37231 50.5394 10.8036 47.6375 11.1565C45.5199 11.4114 43.8925 10.4311 43.1082 9.19582L44.0298 16.5486L42.6965 16.725L40.7554 1.07839L42.0887 0.921538L42.3828 3.25481C42.8141 1.80387 44.1474 0.470569 46.265 0.215674ZM46.1474 1.43132C43.9906 1.70583 42.4024 3.54892 42.7357 6.1959C43.069 8.84289 45.0494 10.2546 47.2258 9.98011C49.461 9.7056 50.9708 7.88213 50.6374 5.19593C50.2845 2.49012 48.3826 1.15682 46.1474 1.43132Z" fill="white"/>
<path d="M61.8723 0.999974C64.735 1.58819 66.4408 4.11754 65.7742 7.39196C65.1075 10.686 62.539 12.3722 59.6763 11.784C57.5783 11.3526 56.3626 9.90169 56.0097 8.47036L54.5196 15.7251L53.1863 15.4506L56.3431 0L57.6763 0.274501L57.2058 2.58817C58.0685 1.41173 59.7743 0.568613 61.8723 0.999974ZM61.3625 2.11759C59.2253 1.68623 57.1273 2.94109 56.5979 5.54886C56.0685 8.15664 57.4999 10.137 59.6371 10.5683C61.8527 11.0193 63.8722 9.76443 64.4016 7.11745C64.931 4.45086 63.5585 2.56855 61.3625 2.11759Z" fill="white"/>
<path d="M70.5976 3.94107L71.8525 4.49008L67.5193 14.2741L66.2644 13.7251L70.5976 3.94107ZM71.5388 1.03919C71.7741 0.509792 72.3623 0.313723 72.8525 0.529404C73.3622 0.745084 73.5975 1.31369 73.3622 1.84309C73.127 2.37249 72.5387 2.58817 72.029 2.37249C71.5388 2.15681 71.3035 1.56859 71.5388 1.03919Z" fill="white"/>
<path d="M79.9307 14.8623C81.3228 12.9408 80.9699 11.1958 79.3817 10.0585C77.7543 8.88209 75.8916 9.09778 74.3818 11.2154L70.9701 15.9603L69.8525 15.1564L76.1072 6.4704L77.2249 7.2743L76.1661 8.74485C77.4994 8.05859 79.0091 8.31349 80.3032 9.23503C82.2836 10.6468 82.9698 12.98 81.1267 15.529L77.4602 20.6269L76.3622 19.8426L79.9307 14.8623Z" fill="white"/>
<path d="M81.0679 25.2346C79.5581 23.3327 79.4404 21.2347 80.8718 19.8818L81.7541 20.9798C80.911 21.8033 80.8718 23.1366 81.9698 24.4895C82.9305 25.6855 84.107 25.8424 84.9109 25.215C86.9893 23.568 81.7737 19.4896 84.9109 16.9995C86.1461 16.0192 88.1265 16.3721 89.5186 18.1367C90.9499 19.9406 90.9303 21.8621 89.401 23.2346L88.5382 22.1562C89.4206 21.3523 89.5774 20.0975 88.5775 18.823C87.6951 17.7054 86.5187 17.4701 85.7932 18.0583C83.5188 19.8622 88.6755 23.8621 85.754 26.2542C84.3815 27.3522 82.4404 26.96 81.0679 25.2346Z" fill="white"/>
<path d="M98.6166 36.548C99.3617 39.3715 97.8519 42.0184 94.6167 42.8812C91.3815 43.7439 88.7149 42.1949 87.9698 39.3714C87.4208 37.3127 88.1855 35.5676 89.3031 34.6265L82.1269 36.5088L81.7739 35.1951L97.048 31.1756L97.401 32.4893L95.1265 33.0971C96.5774 33.3324 98.0676 34.4892 98.6166 36.548ZM97.401 36.5872C96.852 34.4892 94.7932 33.1559 92.205 33.8422C89.6169 34.5284 88.4992 36.6852 89.0482 38.7832C89.6168 40.9596 91.6364 42.2145 94.2442 41.5283C96.8912 40.842 97.9696 38.7636 97.401 36.5872Z" fill="white"/>
<path d="M88.9892 50.4888C89.1656 47.4693 91.4204 45.3124 94.8125 45.5085C98.2242 45.7046 100.165 48.1751 99.9888 51.175C99.8124 54.1946 97.5772 56.3906 94.1655 56.1945C90.793 55.9984 88.8127 53.5083 88.9892 50.4888ZM90.1852 50.5476C90.0675 52.5672 91.3224 54.6063 94.2635 54.7828C97.2046 54.9592 98.6752 53.1162 98.8124 51.077C98.93 49.0378 97.6752 47.0575 94.7341 46.881C91.793 46.7242 90.3028 48.528 90.1852 50.5476Z" fill="white"/>
<path d="M96.5186 66.5472C95.4598 69.2726 92.6756 70.5078 89.5384 69.2922C86.4012 68.0765 85.1856 65.2531 86.2444 62.5277C87.0287 60.5473 88.6561 59.5866 90.1266 59.4885L83.2249 56.7827L83.715 55.5279L98.4009 61.2728L97.9107 62.5277L95.7147 61.6649C96.7539 62.763 97.2833 64.5668 96.5186 66.5472ZM95.499 65.8609C96.3029 63.8414 95.4206 61.5473 92.9305 60.5865C90.4403 59.6062 88.2639 60.6846 87.46 62.7237C86.6365 64.8217 87.5189 67.0177 90.0482 68.0177C92.5775 68.9981 94.6755 67.9589 95.499 65.8609Z" fill="white"/>
<path d="M88.3816 79.8802C86.4993 82.1154 83.4602 82.4095 80.8916 80.2527C78.323 78.0959 78.0485 75.0371 79.9308 72.8019C81.3033 71.1745 83.1661 70.7824 84.5974 71.1549L78.9113 66.3903L79.774 65.3511L91.8521 75.4881L90.9894 76.5273L89.1855 75.0175C89.8325 76.3704 89.7541 78.2527 88.3816 79.8802ZM87.6561 78.8998C89.0482 77.2332 88.9502 74.7823 86.9111 73.0764C84.8719 71.3706 82.4406 71.6843 81.0485 73.3509C79.5975 75.0764 79.7348 77.4488 81.8132 79.1939C83.8915 80.9389 86.2052 80.6252 87.6561 78.8998Z" fill="white"/>
<path d="M81.617 86.1741L80.519 87.0172L73.9897 78.5273L75.0878 77.6841L81.617 86.1741ZM83.715 88.3897C84.0679 88.8603 83.9699 89.4485 83.5385 89.8015C83.1071 90.1348 82.4993 90.076 82.1268 89.625C81.7738 89.1544 81.8719 88.5466 82.3032 88.2133C82.7346 87.8603 83.362 87.9192 83.715 88.3897Z" fill="white"/>
<path d="M67.5782 89.1348C68.6174 91.272 70.3036 91.8014 72.0683 90.9583C73.8722 90.0956 74.578 88.3505 73.4408 85.9976L70.9114 80.7429L72.1467 80.1547L76.7936 89.8015L75.5584 90.3897L74.7741 88.7427C74.7349 90.2328 73.7937 91.4485 72.3624 92.1543C70.1664 93.2131 67.7939 92.7033 66.441 89.8799L63.7156 84.233L64.9312 83.6448L67.5782 89.1348Z" fill="white"/>
<path d="M57.9115 85.2133C60.3036 84.782 62.2055 85.6839 62.7153 87.5858L61.3232 87.8407C61.0095 86.7035 59.8527 86.0565 58.1272 86.3506C56.6175 86.6251 55.9116 87.5858 56.088 88.5858C56.5586 91.1936 62.6173 88.5466 63.3231 92.5073C63.5977 94.0758 62.3428 95.6248 60.1271 96.017C57.8723 96.4091 56.1665 95.4876 55.6959 93.4876L57.0488 93.2523C57.3429 94.4092 58.3625 95.1542 59.9703 94.8601C61.382 94.6052 62.1271 93.7033 61.9702 92.7818C61.4604 89.9191 55.4998 92.5661 54.7744 88.8407C54.4803 87.1152 55.7351 85.5859 57.9115 85.2133Z" fill="white"/>
<path d="M39.579 95.2131C36.7359 94.5072 35.1477 91.919 35.932 88.6642C36.7359 85.4094 39.3633 83.8212 42.2063 84.5075C44.2847 85.0173 45.4415 86.5074 45.7356 87.9584L47.5003 80.7625L48.814 81.0762L45.0494 96.3895L43.7357 96.0758L44.3043 93.7817C43.3828 94.9582 41.6573 95.7228 39.579 95.2131ZM40.128 94.115C42.2456 94.6444 44.3827 93.468 45.0298 90.8798C45.6768 88.2917 44.3043 86.2525 42.1867 85.7427C39.9907 85.2133 37.9319 86.3702 37.2849 88.9975C36.6379 91.6445 37.9516 93.5857 40.128 94.115Z" fill="white"/>
<path d="M31.9517 80.1155C34.5202 81.7037 35.3437 84.7232 33.5595 87.6055C31.7556 90.5073 28.6576 91.0367 26.1087 89.4681C23.5401 87.88 22.6578 84.8604 24.4617 81.9586C26.2459 79.0763 29.3831 78.5273 31.9517 80.1155ZM31.3046 81.135C29.5792 80.0763 27.2067 80.1939 25.6577 82.7036C24.1087 85.1938 25.0107 87.3898 26.7557 88.4486C28.5008 89.5074 30.834 89.3701 32.383 86.8604C33.9124 84.3703 33.0497 82.2134 31.3046 81.135Z" fill="white"/>
<path d="M14.2265 79.037C12.3442 76.8018 12.5795 73.7627 15.1481 71.6059C17.7166 69.4491 20.7754 69.7236 22.6577 71.9588C24.0302 73.6058 24.089 75.4881 23.4616 76.841L29.1477 72.0765L30.0104 73.1156L17.9323 83.2526L17.0696 82.2134L18.8735 80.7037C17.4421 81.0762 15.599 80.6841 14.2265 79.037ZM15.3246 78.488C16.7167 80.1547 19.148 80.488 21.1871 78.7625C23.2263 77.0567 23.3243 74.6058 21.9322 72.9392C20.4813 71.2137 18.1284 70.9392 16.05 72.6647C13.9717 74.4293 13.8736 76.7626 15.3246 78.488Z" fill="white"/>
<path d="M6.40346 65.5472C5.32506 62.8218 6.5211 60.018 9.63866 58.7827C12.7562 57.5474 15.5797 58.7827 16.6581 61.4885C17.4424 63.4688 16.8934 65.2923 15.8934 66.3707L22.7952 63.6453L23.2853 64.9002L8.61908 70.7039L8.1289 69.4491L10.3249 68.5863C8.81516 68.5079 7.18775 67.5472 6.40346 65.5472ZM7.61911 65.3708C8.42301 67.3903 10.619 68.4687 13.0895 67.4883C15.5797 66.508 16.4424 64.2335 15.6385 62.1944C14.815 60.0964 12.6582 59.0964 10.1484 60.0768C7.6191 61.0964 6.79561 63.2728 7.61911 65.3708Z" fill="white"/>
<path d="M1.14859 57.4102C0.560375 57.5082 0.0897906 57.1161 0.0113614 56.5867C-0.0670678 56.0377 0.266259 55.5279 0.834871 55.4494C1.42309 55.3514 1.91328 55.7239 1.99171 56.2729C2.08974 56.8023 1.73681 57.3121 1.14859 57.4102ZM4.10929 56.6259L3.89362 55.273L14.4619 53.5671L14.6776 54.92L4.10929 56.6259Z" fill="white"/>
<path d="M8.20724 42.842C5.83476 42.7243 4.56027 43.9596 4.46224 45.9203C4.3642 47.9203 5.54064 49.3712 8.14841 49.4889L13.9914 49.783L13.9326 51.1555L3.24658 50.6261L3.30541 49.2536L5.12889 49.3516C3.83481 48.6065 3.20737 47.1948 3.2858 45.6066C3.40344 43.1753 4.99164 41.3322 8.1288 41.4891L14.4031 41.8028L14.3051 43.1361L8.20724 42.842Z" fill="white"/>
<path d="M16.266 36.2539C15.4817 38.5479 13.7759 39.7636 11.8544 39.3126L12.3053 37.9793C13.4622 38.2538 14.5798 37.5676 15.1484 35.9009C15.6386 34.45 15.1484 33.3716 14.1876 33.0383C11.6779 32.1756 11.0701 38.7636 7.26624 37.4695C5.75648 36.9597 5.01141 35.0971 5.73688 32.9599C6.48195 30.7834 8.12896 29.7639 10.1093 30.3129L9.65834 31.607C8.50151 31.2932 7.36429 31.8422 6.83489 33.3716C6.36432 34.7245 6.79567 35.8225 7.69761 36.1362C10.4426 37.0774 11.0309 30.5874 14.6386 31.7638C16.2856 32.3128 16.9915 34.1559 16.266 36.2539Z" fill="white"/>
</svg>
